<?xml version="1.0" encoding="UTF-8" ?>
<!DOCTYPE svg PUBLIC "-//W3C//DTD SVG 1.1//EN" "http://www.w3.org/Graphics/SVG/1.1/DTD/svg11.dtd">
<svg width="64pt" height="64pt" viewBox="0 0 64 64" version="1.1" xmlns="http://www.w3.org/2000/svg">
<g id="#b184c5ff">
<path fill="#b184c5" opacity="1.00" d=" M 22.02 6.66 C 26.39 4.31 31.71 4.63 36.44 5.60 C 46.26 8.21 54.20 16.65 56.40 26.55 C 58.37 35.08 56.17 44.66 49.94 50.95 C 42.83 58.71 30.71 61.37 21.11 56.94 C 12.74 53.17 6.70 44.27 6.93 35.00 C 6.66 27.97 10.27 21.02 15.83 16.80 C 22.52 11.57 32.37 11.04 39.74 15.14 C 47.97 19.61 52.02 30.18 49.23 39.06 C 47.09 46.59 39.86 52.41 31.99 52.55 C 27.20 52.98 22.49 51.19 18.72 48.34 C 13.10 43.35 11.21 35.12 13.78 28.09 C 8.09 39.21 17.61 53.95 29.92 54.09 C 40.74 55.31 51.02 46.52 52.61 35.99 C 53.92 26.59 49.42 16.80 41.96 11.10 C 36.32 6.75 28.88 6.12 22.02 6.66 M 20.35 27.35 C 17.32 30.62 17.65 35.59 18.58 39.62 C 21.31 47.00 31.75 50.42 37.97 45.20 C 37.00 45.54 36.03 45.87 35.06 46.22 C 28.99 49.26 20.94 44.43 20.29 37.76 C 19.17 31.92 24.15 26.56 29.80 25.93 C 27.80 28.04 24.65 29.72 24.66 33.02 C 23.96 37.74 27.79 43.13 32.95 42.08 C 39.10 41.68 40.82 33.50 37.91 29.01 C 34.53 22.88 24.82 22.01 20.35 27.35 Z" />
</g>
</svg>
